{
    "streams": [
        {
            "index": 0,
            "codec_name": "hevc",
            "codec_long_name": "H.265 / HEVC (High Efficiency Video Coding)",
            "profile": "Main 10",
            "codec_type": "video",
            "codec_time_base": "1001/24000",
            "codec_tag_string": "[0][0][0][0]",
            "codec_tag": "0x0000",
            "width": 1920,
            "height": 1036,
            "coded_width": 1920,
            "coded_height": 1040,
            "closed_captions": 0,
            "has_b_frames": 2,
            "sample_aspect_ratio": "1:1",
            "display_aspect_ratio": "480:259",
            "pix_fmt": "yuv420p10le",
            "level": 120,
            "color_range": "tv",
            "color_space": "bt709",
            "color_transfer": "bt709",
            "color_primaries": "bt709",
            "refs": 1,
            "r_frame_rate": "24000/1001",
            "avg_frame_rate": "24000/1001",
            "time_base": "1/1000",
            "start_pts": 7,
            "start_time": "0.007000",
            "disposition": {
                "default": 1,
                "dub": 0,
                "original": 0,
                "comment": 0,
                "lyrics": 0,
                "karaoke": 0,
                "forced": 0,
                "hearing_impaired": 0,
                "visual_impaired": 0,
                "clean_effects": 0,
                "attached_pic": 0,
                "timed_thumbnails": 0
            },
            "tags": {
                "BPS-eng": "8543726",
                "DURATION-eng": "02:04:32.757000000",
                "NUMBER_OF_FRAMES-eng": "179167",
                "NUMBER_OF_BYTES-eng": "7980648685",
                "_STATISTICS_WRITING_APP-eng": "mkvmerge v48.0.0 ('Fortress Around Your Heart') 64-bit",
                "_STATISTICS_WRITING_DATE_UTC-eng": "2020-11-16 19:43:47",
                "_STATISTICS_TAGS-eng": "BPS DURATION NUMBER_OF_FRAMES NUMBER_OF_BYTES"
            }
        },
        {
            "index": 1,
            "codec_name": "opus",
            "codec_long_name": "Opus (Opus Interactive Audio Codec)",
            "codec_type": "audio",
            "codec_time_base": "1/48000",
            "codec_tag_string": "[0][0][0][0]",
            "codec_tag": "0x0000",
            "sample_fmt": "fltp",
            "sample_rate": "48000",
            "channels": 2,
            "channel_layout": "stereo",
            "bits_per_sample": 0,
            "r_frame_rate": "0/0",
            "avg_frame_rate": "0/0",
            "time_base": "1/1000",
            "start_pts": -7,
            "start_time": "-0.007000",
            "disposition": {
                "default": 1,
                "dub": 0,
                "original": 0,
                "comment": 0,
                "lyrics": 0,
                "karaoke": 0,
                "forced": 0,
                "hearing_impaired": 0,
                "visual_impaired": 0,
                "clean_effects": 0,
                "attached_pic": 0,
                "timed_thumbnails": 0
            },
            "tags": {
                "language": "jpn",
                "BPS-eng": "251227",
                "DURATION-eng": "02:04:32.281000000",
                "NUMBER_OF_FRAMES-eng": "373614",
                "NUMBER_OF_BYTES-eng": "234655414",
                "_STATISTICS_WRITING_APP-eng": "mkvmerge v48.0.0 ('Fortress Around Your Heart') 64-bit",
                "_STATISTICS_WRITING_DATE_UTC-eng": "2020-11-16 19:43:47",
                "_STATISTICS_TAGS-eng": "BPS DURATION NUMBER_OF_FRAMES NUMBER_OF_BYTES"
            }
        },
        {
            "index": 2,
            "codec_name": "opus",
            "codec_long_name": "Opus (Opus Interactive Audio Codec)",
            "codec_type": "audio",
            "codec_time_base": "1/48000",
            "codec_tag_string": "[0][0][0][0]",
            "codec_tag": "0x0000",
            "sample_fmt": "fltp",
            "sample_rate": "48000",
            "channels": 7,
            "channel_layout": "6.1",
            "bits_per_sample": 0,
            "r_frame_rate": "0/0",
            "avg_frame_rate": "0/0",
            "time_base": "1/1000",
            "start_pts": -7,
            "start_time": "-0.007000",
            "disposition": {
                "default": 0,
                "dub": 0,
                "original": 0,
                "comment": 0,
                "lyrics": 0,
                "karaoke": 0,
                "forced": 0,
                "hearing_impaired": 0,
                "visual_impaired": 0,
                "clean_effects": 0,
                "attached_pic": 0,
                "timed_thumbnails": 0
            },
            "tags": {
                "language": "jpn",
                "BPS-eng": "551850",
                "DURATION-eng": "02:04:32.281000000",
                "NUMBER_OF_FRAMES-eng": "373614",
                "NUMBER_OF_BYTES-eng": "515447735",
                "_STATISTICS_WRITING_APP-eng": "mkvmerge v48.0.0 ('Fortress Around Your Heart') 64-bit",
                "_STATISTICS_WRITING_DATE_UTC-eng": "2020-11-16 19:43:47",
                "_STATISTICS_TAGS-eng": "BPS DURATION NUMBER_OF_FRAMES NUMBER_OF_BYTES"
            }
        },
        {
            "index": 3,
            "codec_name": "ac3",
            "codec_long_name": "ATSC A/52A (AC-3)",
            "codec_type": "audio",
            "codec_time_base": "1/48000",
            "codec_tag_string": "[0][0][0][0]",
            "codec_tag": "0x0000",
            "sample_fmt": "fltp",
            "sample_rate": "48000",
            "channels": 6,
            "channel_layout": "5.1(side)",
            "bits_per_sample": 0,
            "dmix_mode": "-1",
            "ltrt_cmixlev": "-1.000000",
            "ltrt_surmixlev": "-1.000000",
            "loro_cmixlev": "-1.000000",
            "loro_surmixlev": "-1.000000",
            "r_frame_rate": "0/0",
            "avg_frame_rate": "0/0",
            "time_base": "1/1000",
            "start_pts": 2,
            "start_time": "0.002000",
            "bit_rate": "576000",
            "disposition": {
                "default": 0,
                "dub": 0,
                "original": 0,
                "comment": 0,
                "lyrics": 0,
                "karaoke": 0,
                "forced": 0,
                "hearing_impaired": 0,
                "visual_impaired": 0,
                "clean_effects": 0,
                "attached_pic": 0,
                "timed_thumbnails": 0
            },
            "tags": {
                "language": "chi",
                "BPS-eng": "576000",
                "DURATION-eng": "02:04:32.800000000",
                "NUMBER_OF_FRAMES-eng": "233525",
                "NUMBER_OF_BYTES-eng": "538041600",
                "_STATISTICS_WRITING_APP-eng": "mkvmerge v48.0.0 ('Fortress Around Your Heart') 64-bit",
                "_STATISTICS_WRITING_DATE_UTC-eng": "2020-11-16 19:43:47",
                "_STATISTICS_TAGS-eng": "BPS DURATION NUMBER_OF_FRAMES NUMBER_OF_BYTES"
            }
        },
        {
            "index": 4,
            "codec_name": "ass",
            "codec_long_name": "ASS (Advanced SSA) subtitle",
            "codec_type": "subtitle",
            "codec_time_base": "0/1",
            "codec_tag_string": "[0][0][0][0]",
            "codec_tag": "0x0000",
            "r_frame_rate": "0/0",
            "avg_frame_rate": "0/0",
            "time_base": "1/1000",
            "start_pts": -7,
            "start_time": "-0.007000",
            "duration_ts": 7472802,
            "duration": "7472.802000",
            "disposition": {
                "default": 1,
                "dub": 0,
                "original": 0,
                "comment": 0,
                "lyrics": 0,
                "karaoke": 0,
                "forced": 0,
                "hearing_impaired": 0,
                "visual_impaired": 0,
                "clean_effects": 0,
                "attached_pic": 0,
                "timed_thumbnails": 0
            },
            "tags": {
                "title": "SC",
                "BPS-eng": "131",
                "DURATION-eng": "02:04:08.310000000",
                "NUMBER_OF_FRAMES-eng": "2223",
                "NUMBER_OF_BYTES-eng": "122445",
                "_STATISTICS_WRITING_APP-eng": "mkvmerge v48.0.0 ('Fortress Around Your Heart') 64-bit",
                "_STATISTICS_WRITING_DATE_UTC-eng": "2020-11-16 19:43:47",
                "_STATISTICS_TAGS-eng": "BPS DURATION NUMBER_OF_FRAMES NUMBER_OF_BYTES"
            }
        },
        {
            "index": 5,
            "codec_name": "ass",
            "codec_long_name": "ASS (Advanced SSA) subtitle",
            "codec_type": "subtitle",
            "codec_time_base": "0/1",
            "codec_tag_string": "[0][0][0][0]",
            "codec_tag": "0x0000",
            "r_frame_rate": "0/0",
            "avg_frame_rate": "0/0",
            "time_base": "1/1000",
            "start_pts": -7,
            "start_time": "-0.007000",
            "duration_ts": 7472802,
            "duration": "7472.802000",
            "disposition": {
                "default": 0,
                "dub": 0,
                "original": 0,
                "comment": 0,
                "lyrics": 0,
                "karaoke": 0,
                "forced": 0,
                "hearing_impaired": 0,
                "visual_impaired": 0,
                "clean_effects": 0,
                "attached_pic": 0,
                "timed_thumbnails": 0
            },
            "tags": {
                "title": "TC",
                "BPS-eng": "131",
                "DURATION-eng": "02:04:08.310000000",
                "NUMBER_OF_FRAMES-eng": "2223",
                "NUMBER_OF_BYTES-eng": "122448",
                "_STATISTICS_WRITING_APP-eng": "mkvmerge v48.0.0 ('Fortress Around Your Heart') 64-bit",
                "_STATISTICS_WRITING_DATE_UTC-eng": "2020-11-16 19:43:47",
                "_STATISTICS_TAGS-eng": "BPS DURATION NUMBER_OF_FRAMES NUMBER_OF_BYTES"
            }
        },
        {
            "index": 6,
            "codec_name": "ttf",
            "codec_long_name": "TrueType font",
            "codec_type": "attachment",
            "codec_tag_string": "[0][0][0][0]",
            "codec_tag": "0x0000",
            "r_frame_rate": "0/0",
            "avg_frame_rate": "0/0",
            "time_base": "1/90000",
            "start_pts": -630,
            "start_time": "-0.007000",
            "duration_ts": 672552180,
            "duration": "7472.802000",
            "disposition": {
                "default": 0,
                "dub": 0,
                "original": 0,
                "comment": 0,
                "lyrics": 0,
                "karaoke": 0,
                "forced": 0,
                "hearing_impaired": 0,
                "visual_impaired": 0,
                "clean_effects": 0,
                "attached_pic": 0,
                "timed_thumbnails": 0
            },
            "tags": {
                "filename": "鏂规鍑嗗渾_GBK.TTF",
                "mimetype": "application/x-truetype-font"
            }
        },
        {
            "index": 7,
            "codec_name": "otf",
            "codec_long_name": "OpenType font",
            "codec_type": "attachment",
            "codec_tag_string": "[0][0][0][0]",
            "codec_tag": "0x0000",
            "r_frame_rate": "0/0",
            "avg_frame_rate": "0/0",
            "time_base": "1/90000",
            "start_pts": -630,
            "start_time": "-0.007000",
            "duration_ts": 672552180,
            "duration": "7472.802000",
            "disposition": {
                "default": 0,
                "dub": 0,
                "original": 0,
                "comment": 0,
                "lyrics": 0,
                "karaoke": 0,
                "forced": 0,
                "hearing_impaired": 0,
                "visual_impaired": 0,
                "clean_effects": 0,
                "attached_pic": 0,
                "timed_thumbnails": 0
            },
            "tags": {
                "filename": "A-OTF-ShinMGoPro-DeBold.otf",
                "mimetype": "application/vnd.ms-opentype"
            }
        },
        {
            "index": 8,
            "codec_name": "ttf",
            "codec_long_name": "TrueType font",
            "codec_type": "attachment",
            "codec_tag_string": "[0][0][0][0]",
            "codec_tag": "0x0000",
            "r_frame_rate": "0/0",
            "avg_frame_rate": "0/0",
            "time_base": "1/90000",
            "start_pts": -630,
            "start_time": "-0.007000",
            "duration_ts": 672552180,
            "duration": "7472.802000",
            "disposition": {
                "default": 0,
                "dub": 0,
                "original": 0,
                "comment": 0,
                "lyrics": 0,
                "karaoke": 0,
                "forced": 0,
                "hearing_impaired": 0,
                "visual_impaired": 0,
                "clean_effects": 0,
                "attached_pic": 0,
                "timed_thumbnails": 0
            },
            "tags": {
                "filename": "FZCuYuan-M03.ttf",
                "mimetype": "application/x-truetype-font"
            }
        }
    ],
    "format": {
        "filename": "X:\\电影\\千与千寻 (2001)\\千与千寻 (2001) 1080p Opus.mkv",
        "nb_streams": 9,
        "nb_programs": 0,
        "format_name": "matroska,webm",
        "format_long_name": "Matroska / WebM",
        "start_time": "-0.007000",
        "duration": "7472.802000",
        "size": "9297047262",
        "bit_rate": "9952943",
        "probe_score": 100,
        "tags": {
            "encoder": "libebml v1.4.0 + libmatroska v1.6.0",
            "creation_time": "2020-11-16T19:43:47.000000Z"
        }
    }
}